<mxfile host="65bd71144e">
    <diagram id="Rr_KVAvpXlOZNhx7ztUl" name="ページ1">
        <mxGraphModel dx="1579" dy="799" grid="0" gridSize="10" guides="1" tooltips="1" connect="1" arrows="1" fold="1" page="1" pageScale="1" pageWidth="1169" pageHeight="827" background="#ffffff" math="0" shadow="1">
            <root>
                <mxCell id="0"/>
                <mxCell id="1" parent="0"/>
                <mxCell id="3" value="" style="swimlane;startSize=0;sketch=1;hachureGap=4;jiggle=2;curveFitting=1;fontFamily=Architects Daughter;fontSource=https%3A%2F%2Ffonts.googleapis.com%2Fcss%3Ffamily%3DArchitects%2BDaughter;fontSize=20;fillColor=#FFFFFF;" vertex="1" parent="1">
                    <mxGeometry x="40" y="109" width="541" height="709" as="geometry"/>
                </mxCell>
                <mxCell id="5" value="&lt;b&gt;&lt;font color=&quot;#990000&quot;&gt;Function&lt;/font&gt;&lt;/b&gt;" style="rounded=1;whiteSpace=wrap;html=1;sketch=1;hachureGap=4;jiggle=2;curveFitting=1;fontFamily=Architects Daughter;fontSource=https%3A%2F%2Ffonts.googleapis.com%2Fcss%3Ffamily%3DArchitects%2BDaughter;fontSize=20;fillColor=#FFFFFF;" vertex="1" parent="3">
                    <mxGeometry x="12" y="15" width="103" height="29" as="geometry"/>
                </mxCell>
                <mxCell id="8" value="&lt;div style=&quot;font-size: 16px;&quot;&gt;&lt;span style=&quot;font-size: 16px; background-color: initial;&quot;&gt;&lt;font color=&quot;#000000&quot; style=&quot;font-size: 16px;&quot; face=&quot;Helvetica&quot;&gt;1. A&lt;span class=&quot;notion-enable-hover&quot; style=&quot;font-size: 16px;&quot;&gt;&lt;span style=&quot;font-size: 16px;&quot; lang=&quot;EN-US&quot;&gt;ccept a long URL&lt;/span&gt;&lt;/span&gt;&lt;span style=&quot;font-size: 16px;&quot; lang=&quot;EN-US&quot;&gt; and &lt;span class=&quot;notion-enable-hover&quot; style=&quot;font-size: 16px;&quot;&gt;return&lt;/span&gt; &lt;span class=&quot;notion-enable-hover&quot; style=&quot;font-size: 16px;&quot;&gt;a unique shortened URL&lt;/span&gt;&lt;/span&gt;&lt;span class=&quot;notion-enable-hover&quot; style=&quot;font-size: 16px;&quot;&gt;&lt;span style=&quot;font-size: 16px;&quot;&gt;　&lt;/span&gt;&lt;/span&gt;&lt;/font&gt;&lt;/span&gt;&lt;/div&gt;&lt;font face=&quot;Helvetica&quot; style=&quot;font-size: 16px;&quot;&gt;&lt;span style=&quot;color: rgb(0, 0, 0); font-size: 16px;&quot;&gt;&lt;/span&gt;&lt;/font&gt;" style="rounded=1;whiteSpace=wrap;html=1;sketch=1;hachureGap=4;jiggle=2;curveFitting=1;fontFamily=Architects Daughter;fontSource=https%3A%2F%2Ffonts.googleapis.com%2Fcss%3Ffamily%3DArchitects%2BDaughter;fontSize=16;fontColor=#990000;fillColor=#FFFFFF;align=left;fontStyle=1" vertex="1" parent="3">
                    <mxGeometry x="36" y="69" width="495" height="40" as="geometry"/>
                </mxCell>
                <mxCell id="10" value="&lt;div style=&quot;font-size: 16px;&quot;&gt;&lt;font color=&quot;#000000&quot; face=&quot;Helvetica&quot; style=&quot;font-size: 16px;&quot;&gt;2. When a user accesses the shortened URL, the service should redirect them to the original long URL&lt;/font&gt;&lt;/div&gt;&lt;font face=&quot;Helvetica&quot; style=&quot;font-size: 16px;&quot;&gt;&lt;span style=&quot;color: rgb(0, 0, 0); font-size: 16px;&quot;&gt;&lt;/span&gt;&lt;/font&gt;" style="rounded=1;whiteSpace=wrap;html=1;sketch=1;hachureGap=4;jiggle=2;curveFitting=1;fontFamily=Architects Daughter;fontSource=https%3A%2F%2Ffonts.googleapis.com%2Fcss%3Ffamily%3DArchitects%2BDaughter;fontSize=16;fontColor=#990000;fillColor=#FFFFFF;align=left;fontStyle=1" vertex="1" parent="3">
                    <mxGeometry x="32" y="533" width="504" height="40" as="geometry"/>
                </mxCell>
                <mxCell id="11" value="&lt;div style=&quot;font-size: 16px;&quot;&gt;&lt;font color=&quot;#000000&quot; face=&quot;Helvetica&quot; style=&quot;font-size: 16px;&quot;&gt;3. Provide a basic API for&amp;nbsp; retrieving URL analytics, such as the number of clicks on a specific shortened URL&lt;/font&gt;&lt;/div&gt;&lt;font face=&quot;Helvetica&quot; style=&quot;font-size: 16px;&quot;&gt;&lt;span style=&quot;color: rgb(0, 0, 0); font-size: 16px;&quot;&gt;&lt;/span&gt;&lt;/font&gt;" style="rounded=1;whiteSpace=wrap;html=1;sketch=1;hachureGap=4;jiggle=2;curveFitting=1;fontFamily=Architects Daughter;fontSource=https%3A%2F%2Ffonts.googleapis.com%2Fcss%3Ffamily%3DArchitects%2BDaughter;fontSize=16;fontColor=#990000;fillColor=#FFFFFF;align=left;fontStyle=1;arcSize=9;" vertex="1" parent="3">
                    <mxGeometry x="32" y="592" width="499" height="40" as="geometry"/>
                </mxCell>
                <mxCell id="12" value="&lt;div style=&quot;font-size: 16px;&quot;&gt;&lt;font color=&quot;#000000&quot; face=&quot;Helvetica&quot; style=&quot;font-size: 16px;&quot;&gt;4. Handle edge cases, such as invalid or duplicate URLs&lt;/font&gt;&lt;/div&gt;&lt;font face=&quot;Helvetica&quot; style=&quot;font-size: 16px;&quot;&gt;&lt;span style=&quot;color: rgb(0, 0, 0); font-size: 16px;&quot;&gt;&lt;/span&gt;&lt;/font&gt;" style="rounded=1;whiteSpace=wrap;html=1;sketch=1;hachureGap=4;jiggle=2;curveFitting=1;fontFamily=Architects Daughter;fontSource=https%3A%2F%2Ffonts.googleapis.com%2Fcss%3Ffamily%3DArchitects%2BDaughter;fontSize=16;fontColor=#990000;fillColor=#FFFFFF;align=left;fontStyle=1" vertex="1" parent="3">
                    <mxGeometry x="31" y="651" width="495" height="40" as="geometry"/>
                </mxCell>
                <mxCell id="17" value="&lt;b style=&quot;font-size: 12px;&quot;&gt;&lt;font style=&quot;font-size: 16px;&quot;&gt;⑴. Estimate&lt;/font&gt;&lt;br&gt;&lt;font style=&quot;font-size: 14px;&quot; color=&quot;#006600&quot;&gt;&lt;span style=&quot;font-size: 12px;&quot;&gt;&amp;nbsp; &amp;nbsp; 　&lt;/span&gt;&lt;font style=&quot;font-size: 14px;&quot;&gt;① Storage capacity: 12 billion short URLs, approximately 12TB of storage space.&lt;/font&gt;&lt;/font&gt;&lt;br&gt;&lt;font style=&quot;font-size: 12px;&quot; color=&quot;#006600&quot;&gt;&amp;nbsp; &amp;nbsp; &amp;nbsp; &amp;nbsp; &amp;nbsp; &amp;nbsp;&amp;nbsp;&lt;/font&gt;&lt;font style=&quot;font-size: 12px;&quot; color=&quot;#cc6600&quot;&gt;500 million * 12 months * 2 years = 12 billion&lt;br&gt;&amp;nbsp; &amp;nbsp; &amp;nbsp; &amp;nbsp; &amp;nbsp; &amp;nbsp;12 billion * 1KB = 12 TB&lt;/font&gt;&lt;br&gt;&lt;span style=&quot;font-size: 12px;&quot;&gt;&amp;nbsp; &amp;nbsp; &amp;nbsp; &amp;nbsp;&lt;/span&gt;&lt;font style=&quot;font-size: 14px;&quot; color=&quot;#006600&quot;&gt;② Throughput : An average of 20,000 QPS(Queries Per Second),with peak times reaching 40,000 QPS&lt;/font&gt;&lt;br&gt;&lt;span style=&quot;font-size: 12px;&quot;&gt;&amp;nbsp; &amp;nbsp; &amp;nbsp; &amp;nbsp; &amp;nbsp;&amp;nbsp;&lt;/span&gt;&lt;font style=&quot;font-size: 12px;&quot; color=&quot;#cc6600&quot;&gt;(500 million * 100) /(30 * 24 * 60 * 60)&amp;nbsp;&lt;/font&gt;&lt;/b&gt;&lt;font style=&quot;font-size: 12px;&quot; color=&quot;#cc6600&quot;&gt;&lt;span style=&quot;font-family: Arial, sans-serif;&quot; lang=&quot;EN-US&quot;&gt;&lt;font style=&quot;font-size: 12px;&quot;&gt;&lt;b&gt;≈ 20,000&lt;br&gt;&lt;/b&gt;&lt;/font&gt;&lt;/span&gt;&lt;/font&gt;&lt;b style=&quot;&quot;&gt;&lt;font style=&quot;font-size: 12px;&quot; color=&quot;#cc6600&quot;&gt;&amp;nbsp; &amp;nbsp; &amp;nbsp; &amp;nbsp; &amp;nbsp; 20,000 * 2 = 40,000&lt;/font&gt;&lt;br&gt;&lt;span style=&quot;font-size: 14px;&quot;&gt;&amp;nbsp; &amp;nbsp; &amp;nbsp; &amp;nbsp;&lt;/span&gt;&lt;font style=&quot;font-size: 14px;&quot; color=&quot;#006600&quot;&gt;③ Network Bandwidth: 320 Mb during peak hours&lt;/font&gt;&lt;br&gt;&lt;span style=&quot;font-size: 14px;&quot;&gt;&amp;nbsp; &amp;nbsp; &amp;nbsp; &amp;nbsp; &amp;nbsp;&lt;/span&gt;&lt;font style=&quot;font-size: 12px;&quot; color=&quot;#cc6600&quot;&gt;40,000 QPS * 1KB = 40 MB * 8 bits = 320 Mb&amp;nbsp;&lt;/font&gt;&lt;br&gt;&lt;span style=&quot;font-size: 14px;&quot;&gt;&amp;nbsp; &amp;nbsp; &amp;nbsp; &lt;/span&gt;&lt;font style=&quot;font-size: 12px;&quot; color=&quot;#006600&quot;&gt;④ Short URL Length: 6 characters&lt;br&gt;&amp;nbsp; &amp;nbsp; &amp;nbsp; &amp;nbsp; &amp;nbsp; &amp;nbsp;*&amp;nbsp;&lt;/font&gt;&lt;font style=&quot;font-size: 14px;&quot; color=&quot;#cc6600&quot;&gt;&lt;font style=&quot;font-size: 12px;&quot;&gt;Short URL use Base62 encoding&lt;/font&gt;&lt;br&gt;&lt;/font&gt;&lt;span style=&quot;font-size: 12px;&quot;&gt;&amp;nbsp; &amp;nbsp; &amp;nbsp; &amp;nbsp; &amp;nbsp; &amp;nbsp;*&amp;nbsp;&lt;/span&gt;&lt;font style=&quot;font-size: 12px;&quot; color=&quot;#cc6600&quot;&gt;if the length is 7 characters, encode approximately 3 trillion short URLs.&lt;br&gt;&amp;nbsp; &amp;nbsp; &amp;nbsp; &amp;nbsp; &amp;nbsp; &amp;nbsp;&lt;/font&gt;&lt;font style=&quot;font-size: 12px;&quot; color=&quot;#006600&quot;&gt;* &lt;/font&gt;&lt;font style=&quot;font-size: 12px;&quot; color=&quot;#cc6600&quot;&gt;if the length is 6 characters, endcode approximately 56.8 billion short URLs.&lt;br&gt;&lt;/font&gt;&lt;span style=&quot;font-size: 12px; white-space: pre;&quot;&gt;&#9;&lt;/span&gt;&lt;span style=&quot;font-size: 12px;&quot;&gt;&amp;nbsp; &amp;nbsp;&lt;/span&gt;&lt;font style=&quot;font-size: 12px;&quot; color=&quot;#006600&quot;&gt;*&lt;/font&gt; &lt;font style=&quot;font-size: 12px;&quot; color=&quot;#cc6600&quot;&gt;based on previous assessment, the total number of URLs is 12 billion, so 6-characters encoding can meet the demand.&lt;/font&gt;&lt;br&gt;&lt;font style=&quot;font-size: 16px;&quot;&gt;⑵ Short URL Generation Algorithm&lt;/font&gt;&lt;br&gt;&lt;span style=&quot;font-size: 14px;&quot;&gt;&amp;nbsp; &amp;nbsp; &amp;nbsp; &amp;nbsp;&lt;/span&gt;&lt;font style=&quot;font-size: 14px;&quot; color=&quot;#006600&quot;&gt;① Hash Function&lt;br&gt;　　② Incremental Short URL&lt;br&gt;&amp;nbsp; &amp;nbsp; &amp;nbsp; &amp;nbsp;③ Pre-generated URLs&lt;/font&gt;&lt;br&gt;&lt;br&gt;&lt;/b&gt;" style="text;html=1;strokeColor=none;fillColor=none;align=left;verticalAlign=top;whiteSpace=wrap;rounded=0;sketch=1;hachureGap=4;jiggle=2;curveFitting=1;fontFamily=Helvetica;fontSize=15;fontColor=#000099;" vertex="1" parent="3">
                    <mxGeometry x="39" y="119" width="483" height="424" as="geometry"/>
                </mxCell>
                <mxCell id="4" value="" style="swimlane;startSize=0;sketch=1;hachureGap=4;jiggle=2;curveFitting=1;fontFamily=Architects Daughter;fontSource=https%3A%2F%2Ffonts.googleapis.com%2Fcss%3Ffamily%3DArchitects%2BDaughter;fontSize=20;fillColor=#FFFFFF;" vertex="1" parent="1">
                    <mxGeometry x="610" y="114" width="586" height="703" as="geometry"/>
                </mxCell>
                <mxCell id="6" value="&lt;b&gt;&lt;font color=&quot;#990000&quot;&gt;No Function&lt;/font&gt;&lt;/b&gt;" style="rounded=1;whiteSpace=wrap;html=1;sketch=1;hachureGap=4;jiggle=2;curveFitting=1;fontFamily=Architects Daughter;fontSource=https%3A%2F%2Ffonts.googleapis.com%2Fcss%3Ffamily%3DArchitects%2BDaughter;fontSize=20;fillColor=#FFFFFF;" vertex="1" parent="4">
                    <mxGeometry x="11" y="13" width="178" height="29" as="geometry"/>
                </mxCell>
                <mxCell id="13" value="&lt;div style=&quot;font-size: 16px;&quot;&gt;&lt;span style=&quot;font-size: 16px; background-color: initial;&quot;&gt;&lt;font color=&quot;#000000&quot; style=&quot;font-size: 16px;&quot; face=&quot;Helvetica&quot;&gt;1. Scalability: The system needs to maintain high availability without service failure due to server or database outages.&lt;/font&gt;&lt;/span&gt;&lt;/div&gt;" style="rounded=1;whiteSpace=wrap;html=1;sketch=1;hachureGap=4;jiggle=2;curveFitting=1;fontFamily=Architects Daughter;fontSource=https%3A%2F%2Ffonts.googleapis.com%2Fcss%3Ffamily%3DArchitects%2BDaughter;fontSize=16;fontColor=#990000;fillColor=#FFFFFF;align=left;fontStyle=1" vertex="1" parent="4">
                    <mxGeometry x="20" y="66" width="538" height="40" as="geometry"/>
                </mxCell>
                <mxCell id="14" value="&lt;div style=&quot;font-size: 16px;&quot;&gt;&lt;span style=&quot;font-size: 16px; background-color: initial;&quot;&gt;&lt;font color=&quot;#000000&quot; style=&quot;font-size: 16px;&quot; face=&quot;Helvetica&quot;&gt;2. Efficiency: The system must maintain high performance, with 80% of requests responding in less than 5ms,99% in less than 20ms, and an average response time under 10ms.&lt;/font&gt;&lt;/span&gt;&lt;/div&gt;" style="rounded=1;whiteSpace=wrap;html=1;sketch=1;hachureGap=4;jiggle=2;curveFitting=1;fontFamily=Architects Daughter;fontSource=https%3A%2F%2Ffonts.googleapis.com%2Fcss%3Ffamily%3DArchitects%2BDaughter;fontSize=16;fontColor=#990000;fillColor=#FFFFFF;align=left;fontStyle=1" vertex="1" parent="4">
                    <mxGeometry x="24" y="244" width="538" height="75" as="geometry"/>
                </mxCell>
                <mxCell id="15" value="&lt;div style=&quot;font-size: 16px;&quot;&gt;&lt;span style=&quot;font-size: 16px; background-color: initial;&quot;&gt;&lt;font color=&quot;#000000&quot; style=&quot;font-size: 16px;&quot; face=&quot;Helvetica&quot;&gt;3. Unpredictablity of Short URLs: Short URLs should not be guessable; one cannot predict whether a short URL exists or what the corresponding long URL might be.&lt;/font&gt;&lt;/span&gt;&lt;/div&gt;" style="rounded=1;whiteSpace=wrap;html=1;sketch=1;hachureGap=4;jiggle=2;curveFitting=1;fontFamily=Architects Daughter;fontSource=https%3A%2F%2Ffonts.googleapis.com%2Fcss%3Ffamily%3DArchitects%2BDaughter;fontSize=16;fontColor=#990000;fillColor=#FFFFFF;align=left;fontStyle=1" vertex="1" parent="4">
                    <mxGeometry x="16" y="461" width="542" height="75" as="geometry"/>
                </mxCell>
                <mxCell id="19" value="&lt;b style=&quot;&quot;&gt;&amp;nbsp; &amp;nbsp; &amp;nbsp;⑴ Add Nginx Load balancer&lt;br&gt;&amp;nbsp; &amp;nbsp; &amp;nbsp;(2) Setting backend service cluster&lt;br&gt;&amp;nbsp; &amp;nbsp; &amp;nbsp;(3) Add redis cache&lt;br&gt;&amp;nbsp; &amp;nbsp; &amp;nbsp;(4) Setting more than one Database&lt;br&gt;&lt;/b&gt;" style="text;html=1;strokeColor=none;fillColor=none;align=left;verticalAlign=top;whiteSpace=wrap;rounded=0;sketch=1;hachureGap=4;jiggle=2;curveFitting=1;fontFamily=Helvetica;fontSize=15;fontColor=#000099;" vertex="1" parent="4">
                    <mxGeometry x="16" y="118" width="538" height="105" as="geometry"/>
                </mxCell>
                <mxCell id="20" value="&lt;b style=&quot;&quot;&gt;&amp;nbsp; &amp;nbsp; &amp;nbsp;⑴ Using Nginx&lt;br&gt;&amp;nbsp; &amp;nbsp; &amp;nbsp;(2) Using backend service cluster&lt;br&gt;&amp;nbsp; &amp;nbsp; &amp;nbsp;(3) Using redis cache&lt;br&gt;&amp;nbsp; &amp;nbsp; &amp;nbsp;(4) Using pre_generated_urls and pre_reload_urls data&lt;br&gt;&lt;/b&gt;" style="text;html=1;strokeColor=none;fillColor=none;align=left;verticalAlign=top;whiteSpace=wrap;rounded=0;sketch=1;hachureGap=4;jiggle=2;curveFitting=1;fontFamily=Helvetica;fontSize=15;fontColor=#000099;" vertex="1" parent="4">
                    <mxGeometry x="24" y="349" width="538" height="94" as="geometry"/>
                </mxCell>
                <mxCell id="21" value="&lt;b style=&quot;&quot;&gt;&amp;nbsp; &amp;nbsp; &amp;nbsp;⑴ &amp;nbsp;Using pre_generated_urls and pre_reload_urls data&lt;br&gt;&lt;/b&gt;" style="text;html=1;strokeColor=none;fillColor=none;align=left;verticalAlign=top;whiteSpace=wrap;rounded=0;sketch=1;hachureGap=4;jiggle=2;curveFitting=1;fontFamily=Helvetica;fontSize=15;fontColor=#000099;" vertex="1" parent="4">
                    <mxGeometry x="24" y="554" width="538" height="38" as="geometry"/>
                </mxCell>
                <mxCell id="7" value="&lt;b&gt;&lt;font color=&quot;#990000&quot;&gt;URL Shortener Service&lt;/font&gt;&lt;/b&gt;" style="rounded=1;whiteSpace=wrap;html=1;sketch=1;hachureGap=4;jiggle=2;curveFitting=1;fontFamily=Architects Daughter;fontSource=https%3A%2F%2Ffonts.googleapis.com%2Fcss%3Ffamily%3DArchitects%2BDaughter;fontSize=20;fillColor=#FFFFFF;" vertex="1" parent="1">
                    <mxGeometry x="453" y="54" width="294" height="26" as="geometry"/>
                </mxCell>
            </root>
        </mxGraphModel>
    </diagram>
</mxfile>